<svg xmlns="http://www.w3.org/2000/svg" width="800" height="800" fill="none" viewBox="0 0 24 24"><path fill="#0F0F0F" d="M20 15a1 1 0 1 0 0-2 1 1 0 0 0 0 2Z"/><path fill="#0F0F0F" fill-rule="evenodd" d="M16.775.985a3 3 0 0 1 3.828 2.333l.333 1.831A3.001 3.001 0 0 1 23 8v2.764c.614.55 1 1.348 1 2.236v2c0 .889-.386 1.687-1 2.236V20a3 3 0 0 1-3 3H4a3 3 0 0 1-3-3V8a3 3 0 0 1 2.501-2.959L16.775.985ZM21 16a1 1 0 0 0 1-1v-2a1 1 0 0 0-1-1h-3a1 1 0 0 0-1 1v2a1 1 0 0 0 1 1h3Zm0 2v2a1 1 0 0 1-1 1H4a1 1 0 0 1-1-1V8a1 1 0 0 1 1-1h16a1 1 0 0 1 1 .993V10h-3a3 3 0 0 0-3 3v2a3 3 0 0 0 3 3h3ZM18.695 3.607 18.941 5H10l7.423-2.177a1 1 0 0 1 1.272.784Z" clip-rule="evenodd"/></svg>